<svg xmlns="http://www.w3.org/2000/svg" fill="none" viewBox="0 0.09 2804.03 405.93">
<g filter="url(#filter0_d_2728_5804)">
<path d="M2804.03 319.199C2599.73 304.217 2308.96 275.993 1913.89 226.143C1084.95 121.546 296.633 182.561 0 226.143V331.746C420.569 283.694 889.38 139.294 1846.85 304.927C2129.32 353.792 2442.44 403.591 2804.03 406.027V319.199Z" fill="#F21905"/>
<path d="M2803.57 310.162C2600.81 296.042 2302.22 267.47 1886.41 214.238C1069.37 109.641 292.375 170.656 0.00177002 214.238V319.841C414.53 271.788 876.607 127.389 1820.32 293.021C2109.05 343.697 2430.27 395.378 2803.57 394.195V310.162Z" fill="#F28907"/>
<path d="M2800.49 298.31C2727.84 306.041 2401.57 295.417 1683.21 192.328C954.176 87.7064 260.879 148.735 -0.00115967 192.328V297.956C369.876 249.892 782.181 105.459 1624.24 271.129C1955.87 336.374 2335.53 403.287 2800.49 356.944V298.31Z" fill="#F2B705"/>
<path d="M2803.57 246.539C2560.39 232.243 2204.62 203.723 1711.54 151.134C1087.11 84.5372 482.177 85.0799 34.4623 105.511V185.985C421.885 144.78 909.332 124.219 1632.22 229.917C1976.5 280.258 2359.27 331.593 2803.57 331.109V246.539Z" fill="#0FB0F2"/>
<path d="M2803.57 136.225C2511.02 162.59 2078.8 149.275 1566.7 95.0073C952.95 29.9667 408.824 1.69626 0.127197 0.0922721V190.635C431.1 141.421 981.167 107.86 1734.69 217.334C2070.01 266.051 2397.27 298.354 2803.57 292.23V136.225Z" fill="#0A2C59"/>
</g>
<defs>
<filter id="filter0_d_2728_5804" x="-0.0012207" y="0.0922852" width="2813.03" height="413.934" filterUnits="userSpaceOnUse" color-interpolation-filters="sRGB">
<feFlood flood-opacity="0" result="BackgroundImageFix"/>
<feColorMatrix in="SourceAlpha" type="matrix" values="0 0 0 0 0 0 0 0 0 0 0 0 0 0 0 0 0 0 127 0" result="hardAlpha"/>
<feOffset dx="5" dy="4"/>
<feGaussianBlur stdDeviation="2"/>
<feComposite in2="hardAlpha" operator="out"/>
<feColorMatrix type="matrix" values="0 0 0 0 0 0 0 0 0 0 0 0 0 0 0 0 0 0 0.25 0"/>
<feBlend mode="normal" in2="BackgroundImageFix" result="effect1_dropShadow_2728_5804"/>
<feBlend mode="normal" in="SourceGraphic" in2="effect1_dropShadow_2728_5804" result="shape"/>
</filter>
</defs>
</svg>