<svg width="3850" height="764" viewBox="0 0 3850 764" fill="none" xmlns="http://www.w3.org/2000/svg">
<g filter="url(#filter0_d_2741_11126)">
<path d="M3841 555.091C3571.87 510.63 3189.32 444.132 2662.76 355.999C1527.15 165.927 406.371 349.196 0.000488281 428.393V620.292C576.156 532.973 1218.4 270.573 2530.08 571.557C2916.95 660.331 3345.8 750.804 3841 755.271V555.091Z" fill="#F21905"/>
<path d="M3840.37 524.564C3571 476.293 3174.7 403.917 2615.87 314.5C2314.88 266.339 2015.55 245.533 1730.96 242.303C1418.35 208.877 1177.15 228.362 976.034 271.866C540.929 309.541 191.183 373.533 0.000732422 409.153V589.947C332.027 541.841 573.922 358.846 976.034 271.866C1207.24 251.846 1462.54 239.257 1730.96 242.303C1862.18 256.334 2005.98 279.687 2164.67 314.5C2669.37 425.214 3131.31 621.218 3840.37 688.243V524.564Z" fill="#F28907"/>
<path d="M3841 496.253C3727.02 506.013 3277.56 487.468 2316.32 339.201C1316.25 184.947 357.867 268.855 0.000976562 333.128V526.093C507.386 455.228 1072.97 242.276 2228.08 486.541C2682.84 582.707 3203.46 681.33 3841 613.132V496.253Z" fill="#F2B705"/>
<path d="M3840.37 442.804C3565.58 423.931 3163.47 386.258 2606.05 316.764C1497.89 178.61 444.045 259.2 47.4961 316.764L69.417 335C631.647 271.532 1200.12 248.229 2480.09 467C2870.44 533.718 3326.27 574.188 3840.37 560.541V442.804Z" fill="#0FB0F2"/>
<path d="M3840.37 149.115C3452.81 195.109 2802.74 242.402 1936.53 168.281C988.147 87.1296 421.167 17.6276 0.174561 3.55548e-05V348.049C590.504 293.615 1343.96 256.497 2376.11 377.58C2835.46 431.468 3283.77 467.197 3840.37 460.415V149.115Z" fill="#0A2C59"/>
</g>
<defs>
<filter id="filter0_d_2741_11126" x="0.000488281" y="0" width="3850" height="763.271" filterUnits="userSpaceOnUse" color-interpolation-filters="sRGB">
<feFlood flood-opacity="0" result="BackgroundImageFix"/>
<feColorMatrix in="SourceAlpha" type="matrix" values="0 0 0 0 0 0 0 0 0 0 0 0 0 0 0 0 0 0 127 0" result="hardAlpha"/>
<feOffset dx="5" dy="4"/>
<feGaussianBlur stdDeviation="2"/>
<feComposite in2="hardAlpha" operator="out"/>
<feColorMatrix type="matrix" values="0 0 0 0 0 0 0 0 0 0 0 0 0 0 0 0 0 0 0.25 0"/>
<feBlend mode="normal" in2="BackgroundImageFix" result="effect1_dropShadow_2741_11126"/>
<feBlend mode="normal" in="SourceGraphic" in2="effect1_dropShadow_2741_11126" result="shape"/>
</filter>
</defs>
</svg>
