<svg width="7012" height="1609" viewBox="0 0 7012 1609" fill="none" xmlns="http://www.w3.org/2000/svg">
<g filter="url(#filter0_d_2741_11126)">
<path d="M7003 1186.64C6512.31 1094.8 5814.85 957.427 4854.81 775.368C2784.33 382.73 740.908 761.314 0.00292969 924.912V1321.32C1050.46 1140.95 2221.42 598.899 4612.9 1220.65C5318.26 1404.03 6100.14 1590.93 7003 1600.15V1186.64Z" fill="#F21905"/>
<path d="M7001.85 1169.71V957.296C6834.36 981.847 6075 905.766 4258.14 593.593C2437.09 280.702 651.649 730.79 0 861.162V1225.94C923.914 1082.2 1658.22 593.593 2910.78 772.358C3484.46 854.234 5510.69 1578.8 7003 1384.03V1169.71H7001.85Z" fill="#F28907"/>
<path d="M7003 921.135C6819.48 948.622 6016.08 1014.74 4223.16 689.609C2399.82 358.958 652.47 538.818 0.000976562 676.59V1090.22C925.077 938.319 1705.42 428.195 3811.45 951.79C4640.58 1157.93 5839.36 1422.71 7003 1276.79V921.135Z" fill="#F2B705"/>
<path d="M7001.18 794.529C6493.94 765.021 5751.7 706.122 4722.77 597.473C2677.24 381.478 731.981 507.475 0.000976562 597.473L40.4639 625.983C1078.27 526.755 2127.59 490.322 4490.26 832.356C5210.81 936.667 6052.22 999.94 7001.18 978.603V794.529Z" fill="#0FB0F2"/>
<path d="M7001.85 209.007C6295.24 304.154 5110.02 401.993 3530.72 248.657C1077.96 10.5164 871.322 -53.801 0.319336 43.8095V739.836C1239.62 628.761 1494.97 303.982 4332.17 681.64C5169.67 793.118 5987.04 867.038 7001.85 853.01V209.007Z" fill="#0A2C59"/>
</g>
<defs>
<filter id="filter0_d_2741_11126" x="0" y="3.05176e-05" width="7012" height="1608.15" filterUnits="userSpaceOnUse" color-interpolation-filters="sRGB">
<feFlood flood-opacity="0" result="BackgroundImageFix"/>
<feColorMatrix in="SourceAlpha" type="matrix" values="0 0 0 0 0 0 0 0 0 0 0 0 0 0 0 0 0 0 127 0" result="hardAlpha"/>
<feOffset dx="5" dy="4"/>
<feGaussianBlur stdDeviation="2"/>
<feComposite in2="hardAlpha" operator="out"/>
<feColorMatrix type="matrix" values="0 0 0 0 0 0 0 0 0 0 0 0 0 0 0 0 0 0 0.25 0"/>
<feBlend mode="normal" in2="BackgroundImageFix" result="effect1_dropShadow_2741_11126"/>
<feBlend mode="normal" in="SourceGraphic" in2="effect1_dropShadow_2741_11126" result="shape"/>
</filter>
</defs>
</svg>
